<?xml version="1.0" encoding="UTF-8"?>
<svg id="Layer_1" data-name="Layer 1" xmlns="http://www.w3.org/2000/svg" viewBox="0 0 1491.59 319.06">
  <defs>
    <style>
      .cls-1 {
        fill: #f9ca32;
        stroke: #355ca2;
        stroke-miterlimit: 10;
        stroke-width: 7px;
      }
    </style>
  </defs>
  <path class="cls-1" d="m4.94,45.75c11.11-3.67,21.55-7.07,31.33-10.19,9.78-3.12,20.08-6.08,30.91-8.88,10.83-2.8,21.21-5.03,31.12-6.68,7.62-1.28,15.42-1.93,23.41-1.93,13.31,0,22.03.37,26.16,1.1,6.24,1.19,12.14,3.12,17.69,5.78,5.55,2.66,10.51,6.22,14.87,10.67,4.36,4.45,7.92,9.71,10.67,15.77,1.1,2.48,1.65,5.09,1.65,7.85,0,10.28-5.62,22.95-16.87,38-11.25,15.06-22.54,28.18-33.87,39.38-11.34,11.2-19.81,19.23-25.4,24.1l24.79,86.89-36.08,26.02L42.12,93.12c-.19,0-1.06.87-2.62,2.62-1.56,1.74-3.6,4.02-6.13,6.82-2.53,2.8-4.11,4.52-4.75,5.16-.28,0-1.17-1.97-2.69-5.92-1.51-3.95-3.53-9.43-6.06-16.45-2.53-7.02-5.37-14.82-8.54-23.41-3.17-8.58-5.3-13.98-6.4-16.18Zm89.09,38.28l11.29,40.62c5.69-5.78,12.76-13.68,21.21-23.68,8.44-10,12.67-17.26,12.67-21.76,0-1.74-.74-2.75-2.2-3.03-4.13-.92-8.22-1.38-12.25-1.38-12.12,0-22.35,3.08-30.71,9.23Z"/>
  <path class="cls-1" d="m245.77,290.44l-62.1,3.44-3.3-147.75-20.38,4.54,6.75-33.87,69.95-29.33,9.09,202.96ZM200.61,4.03c6.52,0,12.14,1.08,16.87,3.24,4.73,2.16,8.61,4.77,11.64,7.85,3.03,3.08,5.09,5.76,6.2,8.06,1.1,2.48,1.65,5.19,1.65,8.12,0,4.5-.96,9.07-2.89,13.7-1.93,4.64-4.27,8.61-7.02,11.91s-5.37,5.23-7.85,5.78c-4.77.74-8.35,1.1-10.74,1.1-6.06,0-11.34-1.05-15.83-3.17-4.5-2.11-8.08-5.19-10.74-9.23-2.66-4.04-4.32-8.77-4.96-14.18,0-7.8,1.9-15.1,5.71-21.89,3.81-6.79,9.8-10.56,17.97-11.29Z"/>
  <path class="cls-1" d="m230.48,34.46l69.95-29.33,10.19,159.04,57.56-31.53,59.76,8.95-77.94,59.76,73.39,55.35,3.3,55.22-108.23-77.8,3.44,67.61-65.54,1.24-12.39-239.18-20.24,4.54,6.75-33.87Z"/>
  <path class="cls-1" d="m489.35,105.51l57.56-25.89,1.1,76.97c.73,4.77,1.1,10.19,1.1,16.25,0,5.32-.19,9.27-.55,11.84l1.65,84.41-61.96,3.3v-8.4c-10.1,4.13-20.29,6.2-30.57,6.2-7.9,0-15.31-1.19-22.24-3.58-6.93-2.39-12.92-5.6-17.97-9.64-8.17-6.79-14.55-15.95-19.14-27.47-4.59-11.52-6.88-23.71-6.88-36.56,0-22.12,6.38-39.98,19.14-53.56,11.02-11.57,22.38-20.33,34.08-26.3,11.7-5.97,23.66-8.95,35.87-8.95,3.4,0,5.97.09,7.71.28l1.1,1.1Zm-1.1,24.23c-5.05.64-10.03,2.25-14.94,4.82-4.91,2.57-9.11,5.6-12.6,9.09s-6.22,7.32-8.19,11.5c-1.98,4.18-2.96,8.29-2.96,12.32,0,8.35,3.95,15.15,11.84,20.38,6.98,4.68,14.04,7.02,21.21,7.02,1.38,0,3.26-.18,5.65-.55v-29.33c-2.48,0-4.68-.64-6.61-1.93-2.75-2.2-4.13-6.42-4.13-12.67,0-9,3.58-15.88,10.74-20.65Z"/>
  <path class="cls-1" d="m698.51,93.12l67.61,7.85c-1.65,21.76-2.48,39.7-2.48,53.84,0,7.07.21,13.17.62,18.31.41,5.14,1.08,9.82,2,14.04.92,4.22,2.02,7.85,3.3,10.88,5.78,13.13,11.06,19.69,15.83,19.69,3.67,0,7.44-4.68,11.29-14.04,2.57-6.52,4.86-12.92,6.88-19.21,2.02-6.29,3.58-12.28,4.68-17.97,1.1-5.69,1.93-11.93,2.48-18.73.55-6.79.83-14.23.83-22.31s-.09-14.37-.28-18.86l57.56,3.44c3.03,19,4.82,30.45,5.37,34.35.55,3.9.83,8.79.83,14.66,0,10.01-2.43,24.88-7.3,44.61-2.39,10.01-7.67,20.52-15.83,31.53-8.17,11.02-16.07,18.73-23.68,23.13-11.93,6.79-25.84,10.19-41.72,10.19-11.02,0-21.73-1.56-32.15-4.68-10.42-3.12-19.99-7.76-28.71-13.91-8.17-5.69-14.71-13.13-19.62-22.31-4.91-9.18-8.33-19.19-10.26-30.02-1.93-10.83-2.89-22.86-2.89-36.08,0-7.89.25-15.51.76-22.86.5-7.34,1.17-14.85,2-22.51.83-7.66,1.79-15.35,2.89-23.06Z"/>
  <path class="cls-1" d="m526.53,45.75c11.11-3.67,21.55-7.07,31.33-10.19,9.78-3.12,20.08-6.08,30.91-8.88,10.83-2.8,21.21-5.03,31.12-6.68,7.62-1.28,15.42-1.93,23.41-1.93,13.31,0,22.03.37,26.16,1.1,6.24,1.19,12.14,3.12,17.69,5.78,5.55,2.66,10.51,6.22,14.87,10.67,4.36,4.45,7.92,9.71,10.67,15.77,1.1,2.48,1.65,5.09,1.65,7.85,0,10.28-5.62,22.95-16.87,38-11.25,15.06-22.54,28.18-33.87,39.38-11.34,11.2-19.81,19.23-25.4,24.1l24.79,86.89-36.08,26.02-63.2-180.52c-.18,0-1.06.87-2.62,2.62-1.56,1.74-3.6,4.02-6.13,6.82-2.53,2.8-4.11,4.52-4.75,5.16-.28,0-1.17-1.97-2.69-5.92-1.51-3.95-3.53-9.43-6.06-16.45-2.53-7.02-5.37-14.82-8.54-23.41-3.17-8.58-5.3-13.98-6.4-16.18Zm89.09,38.28l11.29,40.62c5.69-5.78,12.76-13.68,21.21-23.68,8.44-10,12.67-17.26,12.67-21.76,0-1.74-.74-2.75-2.2-3.03-4.13-.92-8.22-1.38-12.26-1.38-12.12,0-22.35,3.08-30.71,9.23Z"/>
  <path class="cls-1" d="m1065.19,283.69h-208.75l101.48-130.81-95.84,1.1-7.85-63.2,219.9,1.24-111.67,139.76h106.03l-3.3,51.91Z"/>
  <path class="cls-1" d="m1262.65,283.69h-208.75l101.48-130.81-95.84,1.1-7.85-63.2,219.9,1.24-111.67,139.76h106.03l-3.3,51.91Z"/>
  <path class="cls-1" d="m1333.7,299.53l-62.1,3.44-12.39-239.18-20.24,4.54,6.75-33.87,69.95-29.33,18.04,294.39Z"/>
  <path class="cls-1" d="m1454.46,188.41l33.18,40.07c-2.66,7.71-8.97,14.78-18.93,21.21-9.96,6.43-21.8,11.5-35.53,15.22-13.72,3.72-27.43,5.58-41.1,5.58-12.12,0-22.93-1.61-32.43-4.82-9.5-3.21-16.82-8.08-21.96-14.6-8.91-11.2-13.36-25.52-13.36-42.96,0-13.77,2.5-27.33,7.5-40.69,5-13.36,10.3-22.7,15.9-28.02,6.7-6.33,13.98-11.61,21.83-15.83,7.85-4.22,15.99-7.39,24.44-9.5,8.44-2.11,17.12-3.17,26.02-3.17,11.66,0,22.74,1.86,33.25,5.58,10.51,3.72,19.71,9.11,27.61,16.18l-75.59,90.19c6.7,0,13.06-1.4,19.07-4.2,6.01-2.8,11.54-6.79,16.59-11.98,5.05-5.19,9.55-11.27,13.49-18.24Zm-38.14-32.08c-4.5-2.29-9.09-3.44-13.77-3.44-4.96,0-9.75,1.01-14.39,3.03-4.64,2.02-7.92,4.41-9.84,7.16-5.69,7.35-8.54,15.42-8.54,24.23,0,3.21.32,6.29.96,9.23.64,2.94,1.74,6.98,3.3,12.12l42.27-52.32Z"/>
</svg>